<mxfile host="Electron" modified="2023-07-12T15:07:59.968Z" agent="Mozilla/5.0 (Windows NT 10.0; Win64; x64) AppleWebKit/537.36 (KHTML, like Gecko) draw.io/21.6.1 Chrome/112.0.5615.204 Electron/24.6.1 Safari/537.36" etag="uez-eOlwv_20P950aBkE" version="21.6.1" type="device">
  <diagram name="第 1 页" id="TtRx0HzSlXbrf8c5zqd0">
    <mxGraphModel dx="1668" dy="965" grid="1" gridSize="10" guides="1" tooltips="1" connect="1" arrows="1" fold="1" page="1" pageScale="1" pageWidth="1169" pageHeight="827" math="0" shadow="0">
      <root>
        <mxCell id="0" />
        <mxCell id="1" parent="0" />
        <mxCell id="2w635nzdI1Taf9ucSrJP-47" value="" style="group" vertex="1" connectable="0" parent="1">
          <mxGeometry x="220" y="80" width="1030" height="560" as="geometry" />
        </mxCell>
        <mxCell id="2w635nzdI1Taf9ucSrJP-39" value="" style="rounded=0;whiteSpace=wrap;html=1;fillColor=default;" vertex="1" parent="2w635nzdI1Taf9ucSrJP-47">
          <mxGeometry x="60" width="670" height="500" as="geometry" />
        </mxCell>
        <mxCell id="2w635nzdI1Taf9ucSrJP-38" value="" style="rounded=0;whiteSpace=wrap;html=1;fillColor=default;" vertex="1" parent="2w635nzdI1Taf9ucSrJP-47">
          <mxGeometry x="30" y="30" width="670" height="500" as="geometry" />
        </mxCell>
        <mxCell id="2w635nzdI1Taf9ucSrJP-20" value="etcd" style="rounded=1;whiteSpace=wrap;html=1;fontSize=20;" vertex="1" parent="2w635nzdI1Taf9ucSrJP-47">
          <mxGeometry x="750" y="90" width="120" height="60" as="geometry" />
        </mxCell>
        <mxCell id="2w635nzdI1Taf9ucSrJP-31" value="" style="edgeStyle=orthogonalEdgeStyle;rounded=0;orthogonalLoop=1;jettySize=auto;html=1;" edge="1" parent="2w635nzdI1Taf9ucSrJP-47" source="2w635nzdI1Taf9ucSrJP-21" target="2w635nzdI1Taf9ucSrJP-20">
          <mxGeometry relative="1" as="geometry" />
        </mxCell>
        <mxCell id="2w635nzdI1Taf9ucSrJP-21" value="CalicoCtl" style="rounded=1;whiteSpace=wrap;html=1;fontSize=20;" vertex="1" parent="2w635nzdI1Taf9ucSrJP-47">
          <mxGeometry x="930" y="65" width="100" height="110" as="geometry" />
        </mxCell>
        <mxCell id="2w635nzdI1Taf9ucSrJP-22" value="Route&lt;br&gt;Reflector" style="rounded=1;whiteSpace=wrap;html=1;fontSize=20;" vertex="1" parent="2w635nzdI1Taf9ucSrJP-47">
          <mxGeometry x="780" y="300" width="120" height="60" as="geometry" />
        </mxCell>
        <mxCell id="2w635nzdI1Taf9ucSrJP-23" value="Router" style="rounded=1;whiteSpace=wrap;html=1;fontSize=20;" vertex="1" parent="2w635nzdI1Taf9ucSrJP-47">
          <mxGeometry x="880" y="410" width="120" height="60" as="geometry" />
        </mxCell>
        <mxCell id="2w635nzdI1Taf9ucSrJP-32" value="" style="endArrow=none;html=1;rounded=0;entryX=0.5;entryY=1;entryDx=0;entryDy=0;exitX=0.5;exitY=0;exitDx=0;exitDy=0;" edge="1" parent="2w635nzdI1Taf9ucSrJP-47" source="2w635nzdI1Taf9ucSrJP-23" target="2w635nzdI1Taf9ucSrJP-22">
          <mxGeometry width="50" height="50" relative="1" as="geometry">
            <mxPoint x="800" y="420" as="sourcePoint" />
            <mxPoint x="850" y="370" as="targetPoint" />
          </mxGeometry>
        </mxCell>
        <mxCell id="2w635nzdI1Taf9ucSrJP-35" value="" style="rounded=0;whiteSpace=wrap;html=1;fillColor=default;" vertex="1" parent="2w635nzdI1Taf9ucSrJP-47">
          <mxGeometry y="60" width="670" height="500" as="geometry" />
        </mxCell>
        <mxCell id="2w635nzdI1Taf9ucSrJP-5" value="" style="group" vertex="1" connectable="0" parent="2w635nzdI1Taf9ucSrJP-47">
          <mxGeometry x="20" y="80" width="160" height="150" as="geometry" />
        </mxCell>
        <mxCell id="2w635nzdI1Taf9ucSrJP-1" value="" style="rounded=1;whiteSpace=wrap;html=1;" vertex="1" parent="2w635nzdI1Taf9ucSrJP-5">
          <mxGeometry width="120" height="120" as="geometry" />
        </mxCell>
        <mxCell id="2w635nzdI1Taf9ucSrJP-2" value="eth0" style="rounded=0;whiteSpace=wrap;html=1;fontSize=18;" vertex="1" parent="2w635nzdI1Taf9ucSrJP-5">
          <mxGeometry x="80" y="70" width="80" height="40" as="geometry" />
        </mxCell>
        <mxCell id="2w635nzdI1Taf9ucSrJP-3" value="10.1.109.68" style="text;html=1;strokeColor=none;fillColor=none;align=center;verticalAlign=middle;whiteSpace=wrap;rounded=0;fontSize=16;" vertex="1" parent="2w635nzdI1Taf9ucSrJP-5">
          <mxGeometry x="15" y="120" width="90" height="30" as="geometry" />
        </mxCell>
        <mxCell id="2w635nzdI1Taf9ucSrJP-6" value="" style="group" vertex="1" connectable="0" parent="2w635nzdI1Taf9ucSrJP-47">
          <mxGeometry x="20" y="240" width="160" height="150" as="geometry" />
        </mxCell>
        <mxCell id="2w635nzdI1Taf9ucSrJP-7" value="" style="rounded=1;whiteSpace=wrap;html=1;" vertex="1" parent="2w635nzdI1Taf9ucSrJP-6">
          <mxGeometry width="120" height="120" as="geometry" />
        </mxCell>
        <mxCell id="2w635nzdI1Taf9ucSrJP-8" value="eth0" style="rounded=0;whiteSpace=wrap;html=1;fontSize=18;" vertex="1" parent="2w635nzdI1Taf9ucSrJP-6">
          <mxGeometry x="80" y="70" width="80" height="40" as="geometry" />
        </mxCell>
        <mxCell id="2w635nzdI1Taf9ucSrJP-9" value="10.1.109.69" style="text;html=1;strokeColor=none;fillColor=none;align=center;verticalAlign=middle;whiteSpace=wrap;rounded=0;fontSize=16;" vertex="1" parent="2w635nzdI1Taf9ucSrJP-6">
          <mxGeometry x="15" y="120" width="90" height="30" as="geometry" />
        </mxCell>
        <mxCell id="2w635nzdI1Taf9ucSrJP-10" value="" style="group" vertex="1" connectable="0" parent="2w635nzdI1Taf9ucSrJP-47">
          <mxGeometry x="20" y="400" width="160" height="150" as="geometry" />
        </mxCell>
        <mxCell id="2w635nzdI1Taf9ucSrJP-11" value="" style="rounded=1;whiteSpace=wrap;html=1;" vertex="1" parent="2w635nzdI1Taf9ucSrJP-10">
          <mxGeometry width="120" height="120" as="geometry" />
        </mxCell>
        <mxCell id="2w635nzdI1Taf9ucSrJP-12" value="eth0" style="rounded=0;whiteSpace=wrap;html=1;fontSize=18;" vertex="1" parent="2w635nzdI1Taf9ucSrJP-10">
          <mxGeometry x="80" y="70" width="80" height="40" as="geometry" />
        </mxCell>
        <mxCell id="2w635nzdI1Taf9ucSrJP-13" value="10.1.109.70" style="text;html=1;strokeColor=none;fillColor=none;align=center;verticalAlign=middle;whiteSpace=wrap;rounded=0;fontSize=16;" vertex="1" parent="2w635nzdI1Taf9ucSrJP-10">
          <mxGeometry x="15" y="120" width="90" height="30" as="geometry" />
        </mxCell>
        <mxCell id="2w635nzdI1Taf9ucSrJP-14" value="" style="rounded=1;whiteSpace=wrap;html=1;rotation=90;fillColor=none;" vertex="1" parent="2w635nzdI1Taf9ucSrJP-47">
          <mxGeometry x="150" y="210" width="460" height="200" as="geometry" />
        </mxCell>
        <mxCell id="2w635nzdI1Taf9ucSrJP-15" value="iptables" style="shape=cylinder3;whiteSpace=wrap;html=1;boundedLbl=1;backgroundOutline=1;size=15;fontSize=18;" vertex="1" parent="2w635nzdI1Taf9ucSrJP-47">
          <mxGeometry x="320" y="110" width="120" height="70" as="geometry" />
        </mxCell>
        <mxCell id="2w635nzdI1Taf9ucSrJP-16" value="Routes" style="shape=cylinder3;whiteSpace=wrap;html=1;boundedLbl=1;backgroundOutline=1;size=15;fontSize=18;" vertex="1" parent="2w635nzdI1Taf9ucSrJP-47">
          <mxGeometry x="320" y="220" width="120" height="70" as="geometry" />
        </mxCell>
        <mxCell id="2w635nzdI1Taf9ucSrJP-17" value="Kernel" style="text;html=1;strokeColor=none;fillColor=none;align=center;verticalAlign=middle;whiteSpace=wrap;rounded=0;fontSize=20;" vertex="1" parent="2w635nzdI1Taf9ucSrJP-47">
          <mxGeometry x="340" y="490" width="80" height="30" as="geometry" />
        </mxCell>
        <mxCell id="2w635nzdI1Taf9ucSrJP-18" value="Felix" style="rounded=1;whiteSpace=wrap;html=1;fontSize=20;" vertex="1" parent="2w635nzdI1Taf9ucSrJP-47">
          <mxGeometry x="550" y="90" width="100" height="110" as="geometry" />
        </mxCell>
        <mxCell id="2w635nzdI1Taf9ucSrJP-19" value="BIRD" style="rounded=1;whiteSpace=wrap;html=1;fontSize=20;" vertex="1" parent="2w635nzdI1Taf9ucSrJP-47">
          <mxGeometry x="550" y="300" width="100" height="110" as="geometry" />
        </mxCell>
        <mxCell id="2w635nzdI1Taf9ucSrJP-24" value="" style="endArrow=none;html=1;rounded=0;entryX=1;entryY=0.5;entryDx=0;entryDy=0;exitX=0.5;exitY=1;exitDx=0;exitDy=0;" edge="1" parent="2w635nzdI1Taf9ucSrJP-47" source="2w635nzdI1Taf9ucSrJP-14" target="2w635nzdI1Taf9ucSrJP-2">
          <mxGeometry width="50" height="50" relative="1" as="geometry">
            <mxPoint x="200" y="260" as="sourcePoint" />
            <mxPoint x="250" y="210" as="targetPoint" />
          </mxGeometry>
        </mxCell>
        <mxCell id="2w635nzdI1Taf9ucSrJP-25" value="" style="endArrow=none;html=1;rounded=0;entryX=1;entryY=0.5;entryDx=0;entryDy=0;" edge="1" parent="2w635nzdI1Taf9ucSrJP-47" target="2w635nzdI1Taf9ucSrJP-8">
          <mxGeometry width="50" height="50" relative="1" as="geometry">
            <mxPoint x="280" y="310" as="sourcePoint" />
            <mxPoint x="200" y="300" as="targetPoint" />
          </mxGeometry>
        </mxCell>
        <mxCell id="2w635nzdI1Taf9ucSrJP-26" value="" style="endArrow=none;html=1;rounded=0;entryX=1;entryY=0.5;entryDx=0;entryDy=0;exitX=0.5;exitY=1;exitDx=0;exitDy=0;" edge="1" parent="2w635nzdI1Taf9ucSrJP-47" source="2w635nzdI1Taf9ucSrJP-14" target="2w635nzdI1Taf9ucSrJP-12">
          <mxGeometry width="50" height="50" relative="1" as="geometry">
            <mxPoint x="280" y="470" as="sourcePoint" />
            <mxPoint x="180" y="490" as="targetPoint" />
          </mxGeometry>
        </mxCell>
        <mxCell id="2w635nzdI1Taf9ucSrJP-28" value="" style="endArrow=none;html=1;rounded=0;entryX=0;entryY=0.5;entryDx=0;entryDy=0;exitX=1;exitY=0.5;exitDx=0;exitDy=0;exitPerimeter=0;" edge="1" parent="2w635nzdI1Taf9ucSrJP-47" source="2w635nzdI1Taf9ucSrJP-15" target="2w635nzdI1Taf9ucSrJP-18">
          <mxGeometry width="50" height="50" relative="1" as="geometry">
            <mxPoint x="460" y="170" as="sourcePoint" />
            <mxPoint x="510" y="120" as="targetPoint" />
          </mxGeometry>
        </mxCell>
        <mxCell id="2w635nzdI1Taf9ucSrJP-29" value="" style="endArrow=none;html=1;rounded=0;entryX=0;entryY=0.5;entryDx=0;entryDy=0;exitX=1;exitY=0.5;exitDx=0;exitDy=0;exitPerimeter=0;" edge="1" parent="2w635nzdI1Taf9ucSrJP-47" source="2w635nzdI1Taf9ucSrJP-16" target="2w635nzdI1Taf9ucSrJP-18">
          <mxGeometry width="50" height="50" relative="1" as="geometry">
            <mxPoint x="470" y="230" as="sourcePoint" />
            <mxPoint x="520" y="180" as="targetPoint" />
          </mxGeometry>
        </mxCell>
        <mxCell id="2w635nzdI1Taf9ucSrJP-30" value="" style="endArrow=none;html=1;rounded=0;exitX=1;exitY=0.5;exitDx=0;exitDy=0;exitPerimeter=0;entryX=0;entryY=0.5;entryDx=0;entryDy=0;" edge="1" parent="2w635nzdI1Taf9ucSrJP-47" source="2w635nzdI1Taf9ucSrJP-16" target="2w635nzdI1Taf9ucSrJP-19">
          <mxGeometry width="50" height="50" relative="1" as="geometry">
            <mxPoint x="480" y="290" as="sourcePoint" />
            <mxPoint x="530" y="240" as="targetPoint" />
          </mxGeometry>
        </mxCell>
        <mxCell id="2w635nzdI1Taf9ucSrJP-36" value="K8s Node" style="text;html=1;strokeColor=none;fillColor=none;align=center;verticalAlign=middle;whiteSpace=wrap;rounded=0;fontSize=24;" vertex="1" parent="2w635nzdI1Taf9ucSrJP-47">
          <mxGeometry x="540" y="530" width="130" height="30" as="geometry" />
        </mxCell>
        <mxCell id="2w635nzdI1Taf9ucSrJP-37" value="&lt;span style=&quot;color: rgb(0, 0, 0); font-family: Helvetica; font-size: 24px; font-style: normal; font-variant-ligatures: normal; font-variant-caps: normal; font-weight: 400; letter-spacing: normal; orphans: 2; text-indent: 0px; text-transform: none; widows: 2; word-spacing: 0px; -webkit-text-stroke-width: 0px; background-color: rgb(251, 251, 251); text-decoration-thickness: initial; text-decoration-style: initial; text-decoration-color: initial; float: none; display: inline !important;&quot;&gt;Node&lt;/span&gt;" style="text;whiteSpace=wrap;html=1;align=center;" vertex="1" parent="2w635nzdI1Taf9ucSrJP-47">
          <mxGeometry x="620" y="480" width="80" height="40" as="geometry" />
        </mxCell>
        <mxCell id="2w635nzdI1Taf9ucSrJP-40" value="&lt;span style=&quot;color: rgb(0, 0, 0); font-family: Helvetica; font-size: 24px; font-style: normal; font-variant-ligatures: normal; font-variant-caps: normal; font-weight: 400; letter-spacing: normal; orphans: 2; text-indent: 0px; text-transform: none; widows: 2; word-spacing: 0px; -webkit-text-stroke-width: 0px; background-color: rgb(251, 251, 251); text-decoration-thickness: initial; text-decoration-style: initial; text-decoration-color: initial; float: none; display: inline !important;&quot;&gt;Node&lt;/span&gt;" style="text;whiteSpace=wrap;html=1;align=center;" vertex="1" parent="2w635nzdI1Taf9ucSrJP-47">
          <mxGeometry x="650" y="450" width="80" height="40" as="geometry" />
        </mxCell>
        <mxCell id="2w635nzdI1Taf9ucSrJP-34" value="" style="endArrow=classic;html=1;rounded=0;exitX=0;exitY=0.5;exitDx=0;exitDy=0;entryX=1;entryY=0.5;entryDx=0;entryDy=0;" edge="1" parent="2w635nzdI1Taf9ucSrJP-47" source="2w635nzdI1Taf9ucSrJP-20" target="2w635nzdI1Taf9ucSrJP-18">
          <mxGeometry width="50" height="50" relative="1" as="geometry">
            <mxPoint x="720" y="230" as="sourcePoint" />
            <mxPoint x="770" y="180" as="targetPoint" />
          </mxGeometry>
        </mxCell>
        <mxCell id="2w635nzdI1Taf9ucSrJP-33" value="" style="endArrow=none;html=1;rounded=0;entryX=0;entryY=0.5;entryDx=0;entryDy=0;exitX=1;exitY=0.5;exitDx=0;exitDy=0;" edge="1" parent="2w635nzdI1Taf9ucSrJP-47" source="2w635nzdI1Taf9ucSrJP-19" target="2w635nzdI1Taf9ucSrJP-22">
          <mxGeometry width="50" height="50" relative="1" as="geometry">
            <mxPoint x="710" y="390" as="sourcePoint" />
            <mxPoint x="760" y="340" as="targetPoint" />
          </mxGeometry>
        </mxCell>
        <mxCell id="2w635nzdI1Taf9ucSrJP-43" value="" style="endArrow=none;html=1;rounded=0;exitX=0;exitY=0.5;exitDx=0;exitDy=0;entryX=1;entryY=0.093;entryDx=0;entryDy=0;entryPerimeter=0;" edge="1" parent="2w635nzdI1Taf9ucSrJP-47" source="2w635nzdI1Taf9ucSrJP-20" target="2w635nzdI1Taf9ucSrJP-35">
          <mxGeometry width="50" height="50" relative="1" as="geometry">
            <mxPoint x="760" y="80" as="sourcePoint" />
            <mxPoint x="810" y="30" as="targetPoint" />
          </mxGeometry>
        </mxCell>
        <mxCell id="2w635nzdI1Taf9ucSrJP-44" value="" style="endArrow=none;html=1;rounded=0;exitX=0;exitY=0.5;exitDx=0;exitDy=0;entryX=1;entryY=0.5;entryDx=0;entryDy=0;" edge="1" parent="2w635nzdI1Taf9ucSrJP-47" source="2w635nzdI1Taf9ucSrJP-22" target="2w635nzdI1Taf9ucSrJP-35">
          <mxGeometry width="50" height="50" relative="1" as="geometry">
            <mxPoint x="750" y="300" as="sourcePoint" />
            <mxPoint x="800" y="250" as="targetPoint" />
          </mxGeometry>
        </mxCell>
        <mxCell id="2w635nzdI1Taf9ucSrJP-45" value="" style="endArrow=none;html=1;rounded=0;exitX=0;exitY=0.5;exitDx=0;exitDy=0;entryX=1;entryY=0.5;entryDx=0;entryDy=0;" edge="1" parent="2w635nzdI1Taf9ucSrJP-47" source="2w635nzdI1Taf9ucSrJP-22" target="2w635nzdI1Taf9ucSrJP-38">
          <mxGeometry width="50" height="50" relative="1" as="geometry">
            <mxPoint x="790" y="270" as="sourcePoint" />
            <mxPoint x="830" y="220" as="targetPoint" />
          </mxGeometry>
        </mxCell>
        <mxCell id="2w635nzdI1Taf9ucSrJP-46" value="" style="endArrow=none;html=1;rounded=0;exitX=0;exitY=0.5;exitDx=0;exitDy=0;entryX=1;entryY=0.126;entryDx=0;entryDy=0;entryPerimeter=0;" edge="1" parent="2w635nzdI1Taf9ucSrJP-47" source="2w635nzdI1Taf9ucSrJP-20" target="2w635nzdI1Taf9ucSrJP-38">
          <mxGeometry width="50" height="50" relative="1" as="geometry">
            <mxPoint x="740" y="80" as="sourcePoint" />
            <mxPoint x="790" y="30" as="targetPoint" />
          </mxGeometry>
        </mxCell>
      </root>
    </mxGraphModel>
  </diagram>
</mxfile>
